<?xml version="1.0" encoding="UTF-8" standalone="no"?>
<!DOCTYPE svg PUBLIC "-//W3C//DTD SVG 1.1//EN" "http://www.w3.org/Graphics/SVG/1.1/DTD/svg11.dtd">
<!-- Generated by graphviz version 2.40.1 (20161225.0304)
 -->
<!-- Title: G Pages: 1 -->
<svg width="799pt" height="520pt" viewBox="0.00 0.00 799.13 520.18" xmlns="http://www.w3.org/2000/svg" xmlns:xlink="http://www.w3.org/1999/xlink">
<g id="graph0" class="graph" transform="scale(1 1) rotate(0) translate(4 516.1848)">
<title>G</title>
<polygon fill="#ffffff" stroke="transparent" points="-4,4 -4,-516.1848 795.1343,-516.1848 795.1343,4 -4,4"/>
<!-- 5,9 -->
<g id="node1" class="node">
<title>5,9</title>
<ellipse fill="none" stroke="#000000" cx="103.4949" cy="-338.9199" rx="27" ry="18"/>
<text text-anchor="middle" x="103.4949" y="-334.7199" font-family="Times,serif" font-size="14.00" fill="#000000">5,9</text>
</g>
<!-- 0,1 -->
<g id="node2" class="node">
<title>0,1</title>
<ellipse fill="none" stroke="#000000" cx="27" cy="-356.3349" rx="27" ry="18"/>
<text text-anchor="middle" x="27" y="-352.1349" font-family="Times,serif" font-size="14.00" fill="#000000">0,1</text>
</g>
<!-- 5,9&#45;&gt;0,1 -->
<g id="edge1" class="edge">
<title>5,9-&gt;0,1</title>
<path fill="none" stroke="#048080" stroke-width="5" d="M77.5972,-344.8158C69.5353,-346.6512 60.6535,-348.6733 52.6113,-350.5042"/>
<text text-anchor="middle" x="68.6042" y="-335.06" font-family="Times,serif" font-size="14.00" fill="#000000">29</text>
</g>
<!-- 15,33 -->
<g id="node3" class="node">
<title>15,33</title>
<ellipse fill="none" stroke="#000000" cx="141.8209" cy="-263.0782" rx="32.5309" ry="18"/>
<text text-anchor="middle" x="141.8209" y="-258.8782" font-family="Times,serif" font-size="14.00" fill="#000000">15,33</text>
</g>
<!-- 15,33&#45;&gt;5,9 -->
<g id="edge2" class="edge">
<title>15,33-&gt;5,9</title>
<path fill="none" stroke="#d98080" stroke-width="5" d="M132.9318,-280.6684C126.6959,-293.0083 118.3992,-309.4262 112.2036,-321.6865"/>
<text text-anchor="middle" x="112.0677" y="-305.3775" font-family="Times,serif" font-size="14.00" fill="#000000">226</text>
</g>
<!-- 9,65 -->
<g id="node4" class="node">
<title>9,65</title>
<ellipse fill="none" stroke="#000000" cx="183.976" cy="-187.0092" rx="27.8725" ry="18"/>
<text text-anchor="middle" x="183.976" y="-182.8092" font-family="Times,serif" font-size="14.00" fill="#000000">9,65</text>
</g>
<!-- 9,65&#45;&gt;15,33 -->
<g id="edge3" class="edge">
<title>9,65-&gt;15,33</title>
<path fill="none" stroke="#ea8080" stroke-width="5" d="M174.4103,-204.2704C167.56,-216.6319 158.3694,-233.2164 151.4946,-245.6219"/>
<text text-anchor="middle" x="152.4525" y="-229.1462" font-family="Times,serif" font-size="14.00" fill="#000000">270</text>
</g>
<!-- 19,75 -->
<g id="node5" class="node">
<title>19,75</title>
<ellipse fill="none" stroke="#000000" cx="230.2867" cy="-111.859" rx="32.5309" ry="18"/>
<text text-anchor="middle" x="230.2867" y="-107.659" font-family="Times,serif" font-size="14.00" fill="#000000">19,75</text>
</g>
<!-- 19,75&#45;&gt;9,65 -->
<g id="edge4" class="edge">
<title>19,75-&gt;9,65</title>
<path fill="none" stroke="#2b8080" stroke-width="5" d="M219.7781,-128.9118C212.1991,-141.2106 202.0125,-157.7407 194.443,-170.024"/>
<text text-anchor="middle" x="200.1105" y="-153.6679" font-family="Times,serif" font-size="14.00" fill="#000000">76</text>
</g>
<!-- 11,103 -->
<g id="node6" class="node">
<title>11,103</title>
<ellipse fill="none" stroke="#000000" cx="284.082" cy="-40.7493" rx="37.6864" ry="18"/>
<text text-anchor="middle" x="284.082" y="-36.5493" font-family="Times,serif" font-size="14.00" fill="#000000">11,103</text>
</g>
<!-- 11,103&#45;&gt;19,75 -->
<g id="edge5" class="edge">
<title>11,103-&gt;19,75</title>
<path fill="none" stroke="#ee8080" stroke-width="5" d="M271.0596,-57.963C262.6017,-69.1432 251.6231,-83.6553 243.1891,-94.8039"/>
<text text-anchor="middle" x="246.6244" y="-80.5834" font-family="Times,serif" font-size="14.00" fill="#000000">288</text>
</g>
<!-- 29,125 -->
<g id="node7" class="node">
<title>29,125</title>
<ellipse fill="none" stroke="#000000" cx="362.1602" cy="-18" rx="37.6864" ry="18"/>
<text text-anchor="middle" x="362.1602" y="-13.8" font-family="Times,serif" font-size="14.00" fill="#000000">29,125</text>
</g>
<!-- 29,125&#45;&gt;11,103 -->
<g id="edge6" class="edge">
<title>29,125-&gt;11,103</title>
<path fill="none" stroke="#f78080" stroke-width="5" d="M329.952,-27.3844C325.4152,-28.7062 320.7515,-30.0651 316.2161,-31.3865"/>
<text text-anchor="middle" x="312.584" y="-16.7854" font-family="Times,serif" font-size="14.00" fill="#000000">408</text>
</g>
<!-- 55,127 -->
<g id="node8" class="node">
<title>55,127</title>
<ellipse fill="none" stroke="#000000" cx="445.7381" cy="-49.0837" rx="37.6864" ry="18"/>
<text text-anchor="middle" x="445.7381" y="-44.8837" font-family="Times,serif" font-size="14.00" fill="#000000">55,127</text>
</g>
<!-- 55,127&#45;&gt;29,125 -->
<g id="edge7" class="edge">
<title>55,127-&gt;29,125</title>
<path fill="none" stroke="#e68080" stroke-width="5" d="M416.0363,-38.0372C408.2477,-35.1405 399.8462,-32.0159 392.0479,-29.1156"/>
<text text-anchor="middle" x="414.5421" y="-20.9764" font-family="Times,serif" font-size="14.00" fill="#000000">240</text>
</g>
<!-- 77,125 -->
<g id="node9" class="node">
<title>77,125</title>
<ellipse fill="none" stroke="#000000" cx="525.1682" cy="-87.6001" rx="37.6864" ry="18"/>
<text text-anchor="middle" x="525.1682" y="-83.4001" font-family="Times,serif" font-size="14.00" fill="#000000">77,125</text>
</g>
<!-- 77,125&#45;&gt;55,127 -->
<g id="edge8" class="edge">
<title>77,125-&gt;55,127</title>
<path fill="none" stroke="#c48080" stroke-width="5" d="M498.7191,-74.7747C490.2348,-70.6606 480.8379,-66.1039 472.3425,-61.9844"/>
<text text-anchor="middle" x="475.0308" y="-72.5795" font-family="Times,serif" font-size="14.00" fill="#000000">204</text>
</g>
<!-- 99,135 -->
<g id="node10" class="node">
<title>99,135</title>
<ellipse fill="none" stroke="#000000" cx="601.5714" cy="-129.1159" rx="37.6864" ry="18"/>
<text text-anchor="middle" x="601.5714" y="-124.9159" font-family="Times,serif" font-size="14.00" fill="#000000">99,135</text>
</g>
<!-- 99,135&#45;&gt;77,125 -->
<g id="edge9" class="edge">
<title>99,135-&gt;77,125</title>
<path fill="none" stroke="#bf8080" stroke-width="5" d="M576.5541,-115.5221C568.1112,-110.9344 558.6889,-105.8145 550.2417,-101.2245"/>
<text text-anchor="middle" x="552.8979" y="-112.5733" font-family="Times,serif" font-size="14.00" fill="#000000">200</text>
</g>
<!-- 135,127 -->
<g id="node11" class="node">
<title>135,127</title>
<ellipse fill="none" stroke="#000000" cx="674.5878" cy="-172.5342" rx="42.3433" ry="18"/>
<text text-anchor="middle" x="674.5878" y="-168.3342" font-family="Times,serif" font-size="14.00" fill="#000000">135,127</text>
</g>
<!-- 135,127&#45;&gt;99,135 -->
<g id="edge11" class="edge">
<title>135,127-&gt;99,135</title>
<path fill="none" stroke="#dd8080" stroke-width="5" d="M649.8678,-157.8348C641.9243,-153.1113 633.1467,-147.8918 625.2777,-143.2126"/>
<text text-anchor="middle" x="648.0727" y="-137.9237" font-family="Times,serif" font-size="14.00" fill="#000000">232</text>
</g>
<!-- 140,139 -->
<g id="node12" class="node">
<title>140,139</title>
<ellipse fill="none" stroke="#000000" cx="748.7127" cy="-146.8904" rx="42.3433" ry="18"/>
<text text-anchor="middle" x="748.7127" y="-142.6904" font-family="Times,serif" font-size="14.00" fill="#000000">140,139</text>
</g>
<!-- 135,127&#45;&gt;140,139 -->
<g id="edge10" class="edge">
<title>135,127-&gt;140,139</title>
<path fill="none" stroke="#338080" stroke-width="5" d="M707.7478,-161.0624C710.369,-160.1556 713.0165,-159.2396 715.6371,-158.333"/>
<text text-anchor="middle" x="704.6924" y="-147.0977" font-family="Times,serif" font-size="14.00" fill="#000000">81</text>
</g>
<!-- 123,107 -->
<g id="node13" class="node">
<title>123,107</title>
<ellipse fill="none" stroke="#000000" cx="637.0017" cy="-248.6037" rx="42.3433" ry="18"/>
<text text-anchor="middle" x="637.0017" y="-244.4037" font-family="Times,serif" font-size="14.00" fill="#000000">123,107</text>
</g>
<!-- 123,107&#45;&gt;135,127 -->
<g id="edge12" class="edge">
<title>123,107-&gt;135,127</title>
<path fill="none" stroke="#998080" stroke-width="5" d="M645.7192,-230.9606C651.7479,-218.7592 659.7407,-202.5828 665.7874,-190.3451"/>
<text text-anchor="middle" x="645.2533" y="-214.8529" font-family="Times,serif" font-size="14.00" fill="#000000">172</text>
</g>
<!-- 109,113 -->
<g id="node14" class="node">
<title>109,113</title>
<ellipse fill="none" stroke="#000000" cx="565.298" cy="-204.888" rx="42.3433" ry="18"/>
<text text-anchor="middle" x="565.298" y="-200.688" font-family="Times,serif" font-size="14.00" fill="#000000">109,113</text>
</g>
<!-- 109,113&#45;&gt;99,135 -->
<g id="edge13" class="edge">
<title>109,113-&gt;99,135</title>
<path fill="none" stroke="#448080" stroke-width="5" d="M573.8943,-186.9311C579.7185,-174.7649 587.3776,-158.7656 593.162,-146.6826"/>
<text text-anchor="middle" x="573.0281" y="-171.0068" font-family="Times,serif" font-size="14.00" fill="#000000">108</text>
</g>
<!-- 109,113&#45;&gt;123,107 -->
<g id="edge14" class="edge">
<title>109,113-&gt;123,107</title>
<path fill="none" stroke="#228080" stroke-width="5" d="M589.5736,-219.6881C597.0493,-224.2458 605.2772,-229.2621 612.7511,-233.8188"/>
<text text-anchor="middle" x="608.1624" y="-214.1535" font-family="Times,serif" font-size="14.00" fill="#000000">68</text>
</g>
<!-- 81,107 -->
<g id="node15" class="node">
<title>81,107</title>
<ellipse fill="none" stroke="#000000" cx="490.4197" cy="-163.1835" rx="37.6864" ry="18"/>
<text text-anchor="middle" x="490.4197" y="-158.9835" font-family="Times,serif" font-size="14.00" fill="#000000">81,107</text>
</g>
<!-- 81,107&#45;&gt;77,125 -->
<g id="edge15" class="edge">
<title>81,107-&gt;77,125</title>
<path fill="none" stroke="#118080" stroke-width="5" d="M498.6546,-145.2713C504.1938,-133.2227 511.4656,-117.4054 516.9924,-105.3837"/>
<text text-anchor="middle" x="500.8235" y="-129.5275" font-family="Times,serif" font-size="14.00" fill="#000000">54</text>
</g>
<!-- 81,107&#45;&gt;109,113 -->
<g id="edge16" class="edge">
<title>81,107-&gt;109,113</title>
<path fill="none" stroke="#9d8080" stroke-width="5" d="M514.9377,-176.8391C522.7856,-181.2101 531.4969,-186.062 539.4374,-190.4846"/>
<text text-anchor="middle" x="537.6876" y="-171.0619" font-family="Times,serif" font-size="14.00" fill="#000000">174</text>
</g>
<!-- 55,103 -->
<g id="node16" class="node">
<title>55,103</title>
<ellipse fill="none" stroke="#000000" cx="414.924" cy="-123.5179" rx="37.6864" ry="18"/>
<text text-anchor="middle" x="414.924" y="-119.3179" font-family="Times,serif" font-size="14.00" fill="#000000">55,103</text>
</g>
<!-- 55,103&#45;&gt;55,127 -->
<g id="edge17" class="edge">
<title>55,103-&gt;55,127</title>
<path fill="none" stroke="#408080" stroke-width="5" d="M422.3833,-105.4995C427.228,-93.7965 433.5165,-78.6059 438.3475,-66.9362"/>
<text text-anchor="middle" x="423.3654" y="-90.4178" font-family="Times,serif" font-size="14.00" fill="#000000">96</text>
</g>
<!-- 55,103&#45;&gt;81,107 -->
<g id="edge18" class="edge">
<title>55,103-&gt;81,107</title>
<path fill="none" stroke="#6f8080" stroke-width="5" d="M440.4834,-136.9469C448.3544,-141.0823 457.0174,-145.6339 464.8867,-149.7684"/>
<text text-anchor="middle" x="442.1851" y="-147.5576" font-family="Times,serif" font-size="14.00" fill="#000000">142</text>
</g>
<!-- 33,107 -->
<g id="node17" class="node">
<title>33,107</title>
<ellipse fill="none" stroke="#000000" cx="339.7233" cy="-86.3631" rx="37.6864" ry="18"/>
<text text-anchor="middle" x="339.7233" y="-82.1631" font-family="Times,serif" font-size="14.00" fill="#000000">33,107</text>
</g>
<!-- 33,107&#45;&gt;11,103 -->
<g id="edge20" class="edge">
<title>33,107-&gt;11,103</title>
<path fill="none" stroke="#5e8080" stroke-width="5" d="M320.5747,-70.6654C314.9163,-66.0267 308.7261,-60.9521 303.0774,-56.3214"/>
<text text-anchor="middle" x="301.326" y="-67.6934" font-family="Times,serif" font-size="14.00" fill="#000000">138</text>
</g>
<!-- 33,107&#45;&gt;29,125 -->
<g id="edge19" class="edge">
<title>33,107-&gt;29,125</title>
<path fill="none" stroke="#2f8080" stroke-width="5" d="M345.6183,-68.4015C348.8902,-58.4323 352.9486,-46.0669 356.2266,-36.079"/>
<text text-anchor="middle" x="343.9225" y="-56.4402" font-family="Times,serif" font-size="14.00" fill="#000000">78</text>
</g>
<!-- 33,107&#45;&gt;55,103 -->
<g id="edge21" class="edge">
<title>33,107-&gt;55,103</title>
<path fill="none" stroke="#778080" stroke-width="5" d="M366.0249,-99.358C373.3099,-102.9574 381.2188,-106.865 388.5102,-110.4675"/>
<text text-anchor="middle" x="366.7676" y="-109.1128" font-family="Times,serif" font-size="14.00" fill="#000000">146</text>
</g>
<!-- 33,75 -->
<g id="node18" class="node">
<title>33,75</title>
<ellipse fill="none" stroke="#000000" cx="296.2427" cy="-158.1069" rx="32.5309" ry="18"/>
<text text-anchor="middle" x="296.2427" y="-153.9069" font-family="Times,serif" font-size="14.00" fill="#000000">33,75</text>
</g>
<!-- 33,75&#45;&gt;19,75 -->
<g id="edge22" class="edge">
<title>33,75-&gt;19,75</title>
<path fill="none" stroke="#098080" stroke-width="5" d="M275.7354,-143.7273C267.7185,-138.1059 258.5485,-131.676 250.5548,-126.0709"/>
<text text-anchor="middle" x="256.1451" y="-139.0991" font-family="Times,serif" font-size="14.00" fill="#000000">38</text>
</g>
<!-- 33,75&#45;&gt;33,107 -->
<g id="edge23" class="edge">
<title>33,75-&gt;33,107</title>
<path fill="none" stroke="#a68080" stroke-width="5" d="M306.7681,-140.7397C313.5541,-129.5428 322.3476,-115.0334 329.1441,-103.819"/>
<text text-anchor="middle" x="307.4561" y="-126.4794" font-family="Times,serif" font-size="14.00" fill="#000000">180</text>
</g>
<!-- 59,89 -->
<g id="node19" class="node">
<title>59,89</title>
<ellipse fill="none" stroke="#000000" cx="372.3981" cy="-198.4939" rx="32.5309" ry="18"/>
<text text-anchor="middle" x="372.3981" y="-194.2939" font-family="Times,serif" font-size="14.00" fill="#000000">59,89</text>
</g>
<!-- 59,89&#45;&gt;55,103 -->
<g id="edge24" class="edge">
<title>59,89-&gt;55,103</title>
<path fill="none" stroke="#1a8080" stroke-width="5" d="M382.2613,-181.1044C389.0824,-169.0784 398.1257,-153.1345 404.967,-141.0728"/>
<text text-anchor="middle" x="386.6142" y="-165.2886" font-family="Times,serif" font-size="14.00" fill="#000000">58</text>
</g>
<!-- 59,89&#45;&gt;33,75 -->
<g id="edge25" class="edge">
<title>59,89-&gt;33,75</title>
<path fill="none" stroke="#ae8080" stroke-width="5" d="M348.7195,-185.9366C339.5502,-181.0739 329.0746,-175.5184 319.9067,-170.6564"/>
<text text-anchor="middle" x="323.8131" y="-182.4965" font-family="Times,serif" font-size="14.00" fill="#000000">184</text>
</g>
<!-- 89,87 -->
<g id="node20" class="node">
<title>89,87</title>
<ellipse fill="none" stroke="#000000" cx="448.8148" cy="-239.0084" rx="32.5309" ry="18"/>
<text text-anchor="middle" x="448.8148" y="-234.8084" font-family="Times,serif" font-size="14.00" fill="#000000">89,87</text>
</g>
<!-- 89,87&#45;&gt;81,107 -->
<g id="edge26" class="edge">
<title>89,87-&gt;81,107</title>
<path fill="none" stroke="#598080" stroke-width="5" d="M458.4644,-221.4221C465.1858,-209.1724 474.1126,-192.9032 480.8225,-180.6745"/>
<text text-anchor="middle" x="459.1434" y="-205.2483" font-family="Times,serif" font-size="14.00" fill="#000000">136</text>
</g>
<!-- 89,87&#45;&gt;59,89 -->
<g id="edge27" class="edge">
<title>89,87-&gt;59,89</title>
<path fill="none" stroke="#a68080" stroke-width="5" d="M425.055,-226.4115C415.8542,-221.5334 405.3426,-215.9604 396.1433,-211.0831"/>
<text text-anchor="middle" x="400.0991" y="-222.9473" font-family="Times,serif" font-size="14.00" fill="#000000">180</text>
</g>
<!-- 107,89 -->
<g id="node21" class="node">
<title>107,89</title>
<ellipse fill="none" stroke="#000000" cx="524.7698" cy="-280.3858" rx="37.6864" ry="18"/>
<text text-anchor="middle" x="524.7698" y="-276.1858" font-family="Times,serif" font-size="14.00" fill="#000000">107,89</text>
</g>
<!-- 107,89&#45;&gt;109,113 -->
<g id="edge28" class="edge">
<title>107,89-&gt;109,113</title>
<path fill="none" stroke="#1e8080" stroke-width="5" d="M534.1697,-262.8753C540.6703,-250.7656 549.2888,-234.7107 555.8088,-222.5651"/>
<text text-anchor="middle" x="537.9892" y="-246.9202" font-family="Times,serif" font-size="14.00" fill="#000000">66</text>
</g>
<!-- 107,89&#45;&gt;89,87 -->
<g id="edge29" class="edge">
<title>107,89-&gt;89,87</title>
<path fill="none" stroke="#4d8080" stroke-width="5" d="M499.8993,-266.8373C490.9867,-261.9821 480.9764,-256.5288 472.1944,-251.7448"/>
<text text-anchor="middle" x="475.5469" y="-263.491" font-family="Times,serif" font-size="14.00" fill="#000000">120</text>
</g>
<!-- 129,83 -->
<g id="node22" class="node">
<title>129,83</title>
<ellipse fill="none" stroke="#000000" cx="594.8872" cy="-324.8978" rx="37.6864" ry="18"/>
<text text-anchor="middle" x="594.8872" y="-320.6978" font-family="Times,serif" font-size="14.00" fill="#000000">129,83</text>
</g>
<!-- 129,83&#45;&gt;123,107 -->
<g id="edge30" class="edge">
<title>129,83-&gt;123,107</title>
<path fill="none" stroke="#e18080" stroke-width="5" d="M604.655,-307.2026C611.4587,-294.8771 620.4948,-278.5073 627.2869,-266.2029"/>
<text text-anchor="middle" x="605.4709" y="-290.9028" font-family="Times,serif" font-size="14.00" fill="#000000">234</text>
</g>
<!-- 129,83&#45;&gt;107,89 -->
<g id="edge31" class="edge">
<title>129,83-&gt;107,89</title>
<path fill="none" stroke="#558080" stroke-width="5" d="M571.9281,-310.3229C564.0999,-305.3534 555.3544,-299.8015 547.541,-294.8414"/>
<text text-anchor="middle" x="549.2346" y="-306.7822" font-family="Times,serif" font-size="14.00" fill="#000000">132</text>
</g>
<!-- 135,57 -->
<g id="node23" class="node">
<title>135,57</title>
<ellipse fill="none" stroke="#000000" cx="548.4576" cy="-400.2325" rx="37.6864" ry="18"/>
<text text-anchor="middle" x="548.4576" y="-396.0325" font-family="Times,serif" font-size="14.00" fill="#000000">135,57</text>
</g>
<!-- 135,57&#45;&gt;129,83 -->
<g id="edge32" class="edge">
<title>135,57-&gt;129,83</title>
<path fill="none" stroke="#b78080" stroke-width="5" d="M559.2261,-382.7599C566.727,-370.5894 576.689,-354.4254 584.177,-342.2757"/>
<text text-anchor="middle" x="561.2016" y="-366.7178" font-family="Times,serif" font-size="14.00" fill="#000000">192</text>
</g>
<!-- 111,65 -->
<g id="node24" class="node">
<title>111,65</title>
<ellipse fill="none" stroke="#000000" cx="482.3743" cy="-354.4031" rx="37.6864" ry="18"/>
<text text-anchor="middle" x="482.3743" y="-350.2031" font-family="Times,serif" font-size="14.00" fill="#000000">111,65</text>
</g>
<!-- 111,65&#45;&gt;107,89 -->
<g id="edge33" class="edge">
<title>111,65-&gt;107,89</title>
<path fill="none" stroke="#378080" stroke-width="5" d="M492.4215,-336.8621C499.1796,-325.0631 508.0517,-309.5736 514.7948,-297.801"/>
<text text-anchor="middle" x="496.6081" y="-321.5315" font-family="Times,serif" font-size="14.00" fill="#000000">88</text>
</g>
<!-- 111,65&#45;&gt;135,57 -->
<g id="edge34" class="edge">
<title>111,65-&gt;135,57</title>
<path fill="none" stroke="#668080" stroke-width="5" d="M504.0124,-369.4094C511.3903,-374.526 519.6327,-380.2422 526.9965,-385.3491"/>
<text text-anchor="middle" x="526.0045" y="-364.7792" font-family="Times,serif" font-size="14.00" fill="#000000">140</text>
</g>
<!-- 83,53 -->
<g id="node25" class="node">
<title>83,53</title>
<ellipse fill="none" stroke="#000000" cx="406.1213" cy="-314.2411" rx="32.5309" ry="18"/>
<text text-anchor="middle" x="406.1213" y="-310.0411" font-family="Times,serif" font-size="14.00" fill="#000000">83,53</text>
</g>
<!-- 83,53&#45;&gt;89,87 -->
<g id="edge35" class="edge">
<title>83,53-&gt;89,87</title>
<path fill="none" stroke="#cc8080" stroke-width="5" d="M416.0233,-296.7921C422.9206,-284.6381 432.081,-268.496 438.9664,-256.3628"/>
<text text-anchor="middle" x="416.9949" y="-280.7775" font-family="Times,serif" font-size="14.00" fill="#000000">212</text>
</g>
<!-- 83,53&#45;&gt;111,65 -->
<g id="edge36" class="edge">
<title>83,53-&gt;111,65</title>
<path fill="none" stroke="#958080" stroke-width="5" d="M429.8302,-326.7285C438.3992,-331.2417 448.1076,-336.3551 456.8274,-340.9477"/>
<text text-anchor="middle" x="432.8288" y="-338.0381" font-family="Times,serif" font-size="14.00" fill="#000000">164</text>
</g>
<!-- 55,55 -->
<g id="node26" class="node">
<title>55,55</title>
<ellipse fill="none" stroke="#000000" cx="329.6787" cy="-273.7301" rx="32.5309" ry="18"/>
<text text-anchor="middle" x="329.6787" y="-269.5301" font-family="Times,serif" font-size="14.00" fill="#000000">55,55</text>
</g>
<!-- 55,55&#45;&gt;59,89 -->
<g id="edge37" class="edge">
<title>55,55-&gt;59,89</title>
<path fill="none" stroke="#d08080" stroke-width="5" d="M339.5868,-256.2803C346.4882,-244.1257 355.6542,-227.9829 362.5438,-215.849"/>
<text text-anchor="middle" x="340.5653" y="-240.2647" font-family="Times,serif" font-size="14.00" fill="#000000">222</text>
</g>
<!-- 55,55&#45;&gt;83,53 -->
<g id="edge38" class="edge">
<title>55,55-&gt;83,53</title>
<path fill="none" stroke="#bb8080" stroke-width="5" d="M353.4466,-286.326C362.6504,-291.2036 373.1656,-296.7762 382.3681,-301.653"/>
<text text-anchor="middle" x="357.4073" y="-298.1895" font-family="Times,serif" font-size="14.00" fill="#000000">194</text>
</g>
<!-- 33,67 -->
<g id="node27" class="node">
<title>33,67</title>
<ellipse fill="none" stroke="#000000" cx="253.8803" cy="-232.1186" rx="32.5309" ry="18"/>
<text text-anchor="middle" x="253.8803" y="-227.9186" font-family="Times,serif" font-size="14.00" fill="#000000">33,67</text>
</g>
<!-- 33,67&#45;&gt;9,65 -->
<g id="edge40" class="edge">
<title>33,67-&gt;9,65</title>
<path fill="none" stroke="#518080" stroke-width="5" d="M232.5269,-218.3392C223.3723,-212.4317 212.7432,-205.5728 203.7683,-199.7812"/>
<text text-anchor="middle" x="207.6476" y="-213.2602" font-family="Times,serif" font-size="14.00" fill="#000000">126</text>
</g>
<!-- 33,67&#45;&gt;33,75 -->
<g id="edge39" class="edge">
<title>33,67-&gt;33,75</title>
<path fill="none" stroke="#008080" stroke-width="5" d="M263.9196,-214.5789C270.6725,-202.7808 279.5377,-187.2924 286.2755,-175.5208"/>
<text text-anchor="middle" x="268.0975" y="-199.2498" font-family="Times,serif" font-size="14.00" fill="#000000">20</text>
</g>
<!-- 33,67&#45;&gt;55,55 -->
<g id="edge41" class="edge">
<title>33,67-&gt;55,55</title>
<path fill="none" stroke="#888080" stroke-width="5" d="M277.4479,-245.0566C286.6611,-250.1145 297.1995,-255.8998 306.3861,-260.943"/>
<text text-anchor="middle" x="281.417" y="-257.1998" font-family="Times,serif" font-size="14.00" fill="#000000">158</text>
</g>
<!-- 29,41 -->
<g id="node28" class="node">
<title>29,41</title>
<ellipse fill="none" stroke="#000000" cx="213.1148" cy="-307.5232" rx="32.5309" ry="18"/>
<text text-anchor="middle" x="213.1148" y="-303.3232" font-family="Times,serif" font-size="14.00" fill="#000000">29,41</text>
</g>
<!-- 29,41&#45;&gt;15,33 -->
<g id="edge42" class="edge">
<title>29,41-&gt;15,33</title>
<path fill="none" stroke="#3c8080" stroke-width="5" d="M191.3369,-293.9467C182.6556,-288.5347 172.674,-282.3122 163.9575,-276.8782"/>
<text text-anchor="middle" x="170.6472" y="-289.6125" font-family="Times,serif" font-size="14.00" fill="#000000">94</text>
</g>
<!-- 29,41&#45;&gt;33,67 -->
<g id="edge43" class="edge">
<title>29,41-&gt;33,67</title>
<path fill="none" stroke="#488080" stroke-width="5" d="M222.5697,-290.0344C229.1555,-277.8526 237.9022,-261.6736 244.4767,-249.5126"/>
<text text-anchor="middle" x="223.0232" y="-273.9735" font-family="Times,serif" font-size="14.00" fill="#000000">114</text>
</g>
<!-- 53,35 -->
<g id="node29" class="node">
<title>53,35</title>
<ellipse fill="none" stroke="#000000" cx="287.8443" cy="-349.4268" rx="32.5309" ry="18"/>
<text text-anchor="middle" x="287.8443" y="-345.2268" font-family="Times,serif" font-size="14.00" fill="#000000">53,35</text>
</g>
<!-- 53,35&#45;&gt;55,55 -->
<g id="edge44" class="edge">
<title>53,35-&gt;55,55</title>
<path fill="none" stroke="#268080" stroke-width="5" d="M297.5471,-331.8702C304.3055,-319.6412 313.2816,-303.3996 320.0285,-291.1915"/>
<text text-anchor="middle" x="301.7878" y="-315.7308" font-family="Times,serif" font-size="14.00" fill="#000000">70</text>
</g>
<!-- 53,35&#45;&gt;29,41 -->
<g id="edge45" class="edge">
<title>53,35-&gt;29,41</title>
<path fill="none" stroke="#a28080" stroke-width="5" d="M264.609,-336.3979C255.5257,-331.3046 245.136,-325.4787 236.079,-320.4001"/>
<text text-anchor="middle" x="239.844" y="-332.599" font-family="Times,serif" font-size="14.00" fill="#000000">178</text>
</g>
<!-- 81,41 -->
<g id="node30" class="node">
<title>81,41</title>
<ellipse fill="none" stroke="#000000" cx="363.3502" cy="-389.0805" rx="32.5309" ry="18"/>
<text text-anchor="middle" x="363.3502" y="-384.8805" font-family="Times,serif" font-size="14.00" fill="#000000">81,41</text>
</g>
<!-- 81,41&#45;&gt;83,53 -->
<g id="edge46" class="edge">
<title>81,41-&gt;83,53</title>
<path fill="none" stroke="#0d8080" stroke-width="5" d="M373.2702,-371.7227C380.18,-359.6322 389.357,-343.5746 396.255,-331.5047"/>
<text text-anchor="middle" x="377.7626" y="-355.8137" font-family="Times,serif" font-size="14.00" fill="#000000">46</text>
</g>
<!-- 81,41&#45;&gt;53,35 -->
<g id="edge47" class="edge">
<title>81,41-&gt;53,35</title>
<path fill="none" stroke="#8c8080" stroke-width="5" d="M339.4596,-376.5338C330.5594,-371.8597 320.4656,-366.5586 311.5794,-361.8918"/>
<text text-anchor="middle" x="315.0195" y="-373.4128" font-family="Times,serif" font-size="14.00" fill="#000000">162</text>
</g>
<!-- 111,39 -->
<g id="node31" class="node">
<title>111,39</title>
<ellipse fill="none" stroke="#000000" cx="438.6852" cy="-426.0378" rx="37.6864" ry="18"/>
<text text-anchor="middle" x="438.6852" y="-421.8378" font-family="Times,serif" font-size="14.00" fill="#000000">111,39</text>
</g>
<!-- 111,39&#45;&gt;111,65 -->
<g id="edge48" class="edge">
<title>111,39-&gt;111,65</title>
<path fill="none" stroke="#5e8080" stroke-width="5" d="M449.2611,-408.697C456.0796,-397.5171 464.9152,-383.0298 471.7444,-371.8325"/>
<text text-anchor="middle" x="450.0027" y="-394.4647" font-family="Times,serif" font-size="14.00" fill="#000000">138</text>
</g>
<!-- 111,39&#45;&gt;81,41 -->
<g id="edge49" class="edge">
<title>111,39-&gt;81,41</title>
<path fill="none" stroke="#668080" stroke-width="5" d="M412.3366,-413.1119C404.3597,-409.1986 395.6361,-404.9191 387.7898,-401.0699"/>
<text text-anchor="middle" x="389.5632" y="-411.2909" font-family="Times,serif" font-size="14.00" fill="#000000">140</text>
</g>
<!-- 133,29 -->
<g id="node32" class="node">
<title>133,29</title>
<ellipse fill="none" stroke="#000000" cx="494.3745" cy="-471.3731" rx="37.6864" ry="18"/>
<text text-anchor="middle" x="494.3745" y="-467.1731" font-family="Times,serif" font-size="14.00" fill="#000000">133,29</text>
</g>
<!-- 133,29&#45;&gt;135,57 -->
<g id="edge50" class="edge">
<title>133,29-&gt;135,57</title>
<path fill="none" stroke="#7b8080" stroke-width="5" d="M507.4665,-454.152C515.9697,-442.9669 527.007,-428.4484 535.4861,-417.2951"/>
<text text-anchor="middle" x="510.9763" y="-439.9235" font-family="Times,serif" font-size="14.00" fill="#000000">150</text>
</g>
<!-- 133,29&#45;&gt;111,39 -->
<g id="edge51" class="edge">
<title>133,29-&gt;111,39</title>
<path fill="none" stroke="#c88080" stroke-width="5" d="M475.2094,-455.7713C469.6719,-451.2633 463.6256,-446.3412 458.0746,-441.8223"/>
<text text-anchor="middle" x="456.142" y="-452.9968" font-family="Times,serif" font-size="14.00" fill="#000000">208</text>
</g>
<!-- 99,17 -->
<g id="node33" class="node">
<title>99,17</title>
<ellipse fill="none" stroke="#000000" cx="416.0336" cy="-494.1848" rx="32.5309" ry="18"/>
<text text-anchor="middle" x="416.0336" y="-489.9848" font-family="Times,serif" font-size="14.00" fill="#000000">99,17</text>
</g>
<!-- 99,17&#45;&gt;111,39 -->
<g id="edge52" class="edge">
<title>99,17-&gt;111,39</title>
<path fill="none" stroke="#7b8080" stroke-width="5" d="M421.985,-476.2799C425.2882,-466.3423 429.3854,-454.0159 432.6948,-444.0596"/>
<text text-anchor="middle" x="416.8399" y="-464.3698" font-family="Times,serif" font-size="14.00" fill="#000000">150</text>
</g>
<!-- 99,17&#45;&gt;133,29 -->
<g id="edge53" class="edge">
<title>99,17-&gt;133,29</title>
<path fill="none" stroke="#fb8080" stroke-width="5" d="M445.2049,-485.6905C450.6862,-484.0945 456.4475,-482.4169 462.0191,-480.7945"/>
<text text-anchor="middle" x="464.112" y="-487.4425" font-family="Times,serif" font-size="14.00" fill="#000000">458</text>
</g>
<!-- 87,13 -->
<g id="node34" class="node">
<title>87,13</title>
<ellipse fill="none" stroke="#000000" cx="332.2066" cy="-463.2193" rx="32.5309" ry="18"/>
<text text-anchor="middle" x="332.2066" y="-459.0193" font-family="Times,serif" font-size="14.00" fill="#000000">87,13</text>
</g>
<!-- 87,13&#45;&gt;81,41 -->
<g id="edge54" class="edge">
<title>87,13-&gt;81,41</title>
<path fill="none" stroke="#b38080" stroke-width="5" d="M339.5872,-445.6494C344.5157,-433.9167 350.9747,-418.5408 355.9146,-406.7812"/>
<text text-anchor="middle" x="337.2509" y="-430.4153" font-family="Times,serif" font-size="14.00" fill="#000000">190</text>
</g>
<!-- 87,13&#45;&gt;99,17 -->
<g id="edge55" class="edge">
<title>87,13-&gt;99,17</title>
<path fill="none" stroke="#158080" stroke-width="5" d="M359.6547,-473.3585C369.0135,-476.8156 379.469,-480.6779 388.8101,-484.1285"/>
<text text-anchor="middle" x="374.2324" y="-466.1435" font-family="Times,serif" font-size="14.00" fill="#000000">56</text>
</g>
<!-- 59,11 -->
<g id="node35" class="node">
<title>59,11</title>
<ellipse fill="none" stroke="#000000" cx="252.5673" cy="-424.6184" rx="32.5309" ry="18"/>
<text text-anchor="middle" x="252.5673" y="-420.4184" font-family="Times,serif" font-size="14.00" fill="#000000">59,11</text>
</g>
<!-- 59,11&#45;&gt;53,35 -->
<g id="edge56" class="edge">
<title>59,11-&gt;53,35</title>
<path fill="none" stroke="#848080" stroke-width="5" d="M260.7492,-407.179C266.4076,-395.1183 273.9093,-379.1286 279.5845,-367.0321"/>
<text text-anchor="middle" x="259.6668" y="-391.3055" font-family="Times,serif" font-size="14.00" fill="#000000">154</text>
</g>
<!-- 59,11&#45;&gt;87,13 -->
<g id="edge57" class="edge">
<title>59,11-&gt;87,13</title>
<path fill="none" stroke="#f28080" stroke-width="5" d="M277.3291,-436.6204C286.9178,-441.268 297.8728,-446.5778 307.4601,-451.2247"/>
<text text-anchor="middle" x="281.8946" y="-448.1226" font-family="Times,serif" font-size="14.00" fill="#000000">298</text>
</g>
<!-- 35,5 -->
<g id="node36" class="node">
<title>35,5</title>
<ellipse fill="none" stroke="#000000" cx="176.0299" cy="-382.9024" rx="27.8725" ry="18"/>
<text text-anchor="middle" x="176.0299" y="-378.7024" font-family="Times,serif" font-size="14.00" fill="#000000">35,5</text>
</g>
<!-- 35,5&#45;&gt;5,9 -->
<g id="edge59" class="edge">
<title>35,5-&gt;5,9</title>
<path fill="none" stroke="#6f8080" stroke-width="5" d="M155.4383,-370.4164C145.4699,-364.372 133.5451,-357.1412 123.6367,-351.1331"/>
<text text-anchor="middle" x="129.0375" y="-364.9748" font-family="Times,serif" font-size="14.00" fill="#000000">142</text>
</g>
<!-- 35,5&#45;&gt;29,41 -->
<g id="edge58" class="edge">
<title>35,5-&gt;29,41</title>
<path fill="none" stroke="#d08080" stroke-width="5" d="M184.6311,-365.4194C190.6223,-353.2417 198.5793,-337.0683 204.5602,-324.9114"/>
<text text-anchor="middle" x="184.0957" y="-349.3654" font-family="Times,serif" font-size="14.00" fill="#000000">222</text>
</g>
<!-- 35,5&#45;&gt;59,11 -->
<g id="edge60" class="edge">
<title>35,5-&gt;59,11</title>
<path fill="none" stroke="#8c8080" stroke-width="5" d="M197.7577,-394.745C207.569,-400.0925 219.1764,-406.419 229.1779,-411.8702"/>
<text text-anchor="middle" x="202.9678" y="-407.5076" font-family="Times,serif" font-size="14.00" fill="#000000">162</text>
</g>
</g>
</svg>