<?xml version="1.0" encoding="UTF-8" standalone="no"?>
<!DOCTYPE svg PUBLIC "-//W3C//DTD SVG 1.1//EN" "http://www.w3.org/Graphics/SVG/1.1/DTD/svg11.dtd">
<!-- Generated by graphviz version 2.40.1 (20161225.0304)
 -->
<!-- Title: G Pages: 1 -->
<svg width="506pt" height="511pt" viewBox="0.00 0.00 506.29 510.76" xmlns="http://www.w3.org/2000/svg" xmlns:xlink="http://www.w3.org/1999/xlink">
<g id="graph0" class="graph" transform="scale(1 1) rotate(0) translate(4 506.7552)">
<title>G</title>
<polygon fill="#ffffff" stroke="transparent" points="-4,4 -4,-506.7552 502.2906,-506.7552 502.2906,4 -4,4"/>
<!-- 15,33 -->
<g id="node1" class="node">
<title>15,33</title>
<ellipse fill="none" stroke="#000000" cx="152.6106" cy="-479.8961" rx="32.5309" ry="18"/>
<text text-anchor="middle" x="152.6106" y="-475.6961" font-family="Times,serif" font-size="14.00" fill="#000000">15,33</text>
</g>
<!-- 5,9 -->
<g id="node2" class="node">
<title>5,9</title>
<ellipse fill="none" stroke="#000000" cx="68.3855" cy="-484.7552" rx="27" ry="18"/>
<text text-anchor="middle" x="68.3855" y="-480.5552" font-family="Times,serif" font-size="14.00" fill="#000000">5,9</text>
</g>
<!-- 15,33&#45;&gt;5,9 -->
<g id="edge1" class="edge">
<title>15,33-&gt;5,9</title>
<path fill="none" stroke="#000000" d="M119.8058,-481.7887C111.7689,-482.2523 103.2558,-482.7435 95.5184,-483.1899"/>
<text text-anchor="middle" x="107.6621" y="-469.8893" font-family="Times,serif" font-size="14.00" fill="#000000">226</text>
</g>
<!-- 9,65 -->
<g id="node3" class="node">
<title>9,65</title>
<ellipse fill="none" stroke="#000000" cx="239.0074" cy="-468.2817" rx="27.8725" ry="18"/>
<text text-anchor="middle" x="239.0074" y="-464.0817" font-family="Times,serif" font-size="14.00" fill="#000000">9,65</text>
</g>
<!-- 9,65&#45;&gt;15,33 -->
<g id="edge2" class="edge">
<title>9,65-&gt;15,33</title>
<path fill="none" stroke="#000000" d="M211.1953,-472.0205C202.7107,-473.1611 193.3152,-474.4242 184.5783,-475.5987"/>
<text text-anchor="middle" x="197.8868" y="-461.2096" font-family="Times,serif" font-size="14.00" fill="#000000">270</text>
</g>
<!-- 19,75 -->
<g id="node4" class="node">
<title>19,75</title>
<ellipse fill="none" stroke="#000000" cx="325.8816" cy="-452.1743" rx="32.5309" ry="18"/>
<text text-anchor="middle" x="325.8816" y="-447.9743" font-family="Times,serif" font-size="14.00" fill="#000000">19,75</text>
</g>
<!-- 19,75&#45;&gt;9,65 -->
<g id="edge3" class="edge">
<title>19,75-&gt;9,65</title>
<path fill="none" stroke="#000000" d="M294.518,-457.9894C285.1865,-459.7196 275.0474,-461.5995 266.0187,-463.2735"/>
<text text-anchor="middle" x="273.2684" y="-464.8315" font-family="Times,serif" font-size="14.00" fill="#000000">76</text>
</g>
<!-- 11,103 -->
<g id="node5" class="node">
<title>11,103</title>
<ellipse fill="none" stroke="#000000" cx="411.5138" cy="-427.8277" rx="37.6864" ry="18"/>
<text text-anchor="middle" x="411.5138" y="-423.6277" font-family="Times,serif" font-size="14.00" fill="#000000">11,103</text>
</g>
<!-- 11,103&#45;&gt;19,75 -->
<g id="edge4" class="edge">
<title>11,103-&gt;19,75</title>
<path fill="none" stroke="#000000" d="M379.1399,-437.0321C371.2778,-439.2674 362.9153,-441.645 355.2035,-443.8376"/>
<text text-anchor="middle" x="361.9217" y="-427.8348" font-family="Times,serif" font-size="14.00" fill="#000000">288</text>
</g>
<!-- 29,125 -->
<g id="node6" class="node">
<title>29,125</title>
<ellipse fill="none" stroke="#000000" cx="460.3071" cy="-363.5507" rx="37.6864" ry="18"/>
<text text-anchor="middle" x="460.3071" y="-359.3507" font-family="Times,serif" font-size="14.00" fill="#000000">29,125</text>
</g>
<!-- 29,125&#45;&gt;11,103 -->
<g id="edge5" class="edge">
<title>29,125-&gt;11,103</title>
<path fill="none" stroke="#000000" d="M447.2314,-380.7757C440.2306,-389.998 431.6318,-401.3255 424.6256,-410.5551"/>
<text text-anchor="middle" x="425.4285" y="-383.0654" font-family="Times,serif" font-size="14.00" fill="#000000">408</text>
</g>
<!-- 55,127 -->
<g id="node7" class="node">
<title>55,127</title>
<ellipse fill="none" stroke="#000000" cx="460.6975" cy="-274.5646" rx="37.6864" ry="18"/>
<text text-anchor="middle" x="460.6975" y="-270.3646" font-family="Times,serif" font-size="14.00" fill="#000000">55,127</text>
</g>
<!-- 55,127&#45;&gt;29,125 -->
<g id="edge6" class="edge">
<title>55,127-&gt;29,125</title>
<path fill="none" stroke="#000000" d="M460.6185,-292.5723C460.5512,-307.9094 460.455,-329.848 460.3873,-345.2644"/>
<text text-anchor="middle" x="450.0029" y="-323.1183" font-family="Times,serif" font-size="14.00" fill="#000000">240</text>
</g>
<!-- 77,125 -->
<g id="node8" class="node">
<title>77,125</title>
<ellipse fill="none" stroke="#000000" cx="452.8275" cy="-186.6362" rx="37.6864" ry="18"/>
<text text-anchor="middle" x="452.8275" y="-182.4362" font-family="Times,serif" font-size="14.00" fill="#000000">77,125</text>
</g>
<!-- 77,125&#45;&gt;55,127 -->
<g id="edge7" class="edge">
<title>77,125-&gt;55,127</title>
<path fill="none" stroke="#000000" d="M454.4581,-204.855C455.8088,-219.9457 457.7188,-241.2849 459.0689,-256.3691"/>
<text text-anchor="middle" x="446.2635" y="-234.8121" font-family="Times,serif" font-size="14.00" fill="#000000">204</text>
</g>
<!-- 99,135 -->
<g id="node9" class="node">
<title>99,135</title>
<ellipse fill="none" stroke="#000000" cx="440.8539" cy="-100.4121" rx="37.6864" ry="18"/>
<text text-anchor="middle" x="440.8539" y="-96.2121" font-family="Times,serif" font-size="14.00" fill="#000000">99,135</text>
</g>
<!-- 99,135&#45;&gt;77,125 -->
<g id="edge8" class="edge">
<title>99,135-&gt;77,125</title>
<path fill="none" stroke="#000000" d="M443.3932,-118.698C445.4388,-133.4294 448.2992,-154.0273 450.3329,-168.6723"/>
<text text-anchor="middle" x="436.363" y="-147.8852" font-family="Times,serif" font-size="14.00" fill="#000000">200</text>
</g>
<!-- 135,127 -->
<g id="node10" class="node">
<title>135,127</title>
<ellipse fill="none" stroke="#000000" cx="423.5941" cy="-18" rx="42.3433" ry="18"/>
<text text-anchor="middle" x="423.5941" y="-13.8" font-family="Times,serif" font-size="14.00" fill="#000000">135,127</text>
</g>
<!-- 135,127&#45;&gt;99,135 -->
<g id="edge9" class="edge">
<title>135,127-&gt;99,135</title>
<path fill="none" stroke="#000000" d="M427.4246,-36.2899C430.3047,-50.0419 434.2305,-68.7869 437.0935,-82.4569"/>
<text text-anchor="middle" x="421.759" y="-63.5734" font-family="Times,serif" font-size="14.00" fill="#000000">232</text>
</g>
<!-- 123,107 -->
<g id="node11" class="node">
<title>123,107</title>
<ellipse fill="none" stroke="#000000" cx="339.848" cy="-24.093" rx="42.3433" ry="18"/>
<text text-anchor="middle" x="339.848" y="-19.893" font-family="Times,serif" font-size="14.00" fill="#000000">123,107</text>
</g>
<!-- 123,107&#45;&gt;135,127 -->
<g id="edge10" class="edge">
<title>123,107-&gt;135,127</title>
<path fill="none" stroke="#000000" d="M381.721,-21.0465C381.8846,-21.0346 382.0482,-21.0227 382.2117,-21.0108"/>
<text text-anchor="middle" x="371.4664" y="-8.4286" font-family="Times,serif" font-size="14.00" fill="#000000">172</text>
</g>
<!-- 109,113 -->
<g id="node12" class="node">
<title>109,113</title>
<ellipse fill="none" stroke="#000000" cx="357.3478" cy="-106.0866" rx="42.3433" ry="18"/>
<text text-anchor="middle" x="357.3478" y="-101.8866" font-family="Times,serif" font-size="14.00" fill="#000000">109,113</text>
</g>
<!-- 109,113&#45;&gt;99,135 -->
<g id="edge11" class="edge">
<title>109,113-&gt;99,135</title>
<path fill="none" stroke="#000000" d="M399.5901,-103.2161C400.8846,-103.1282 402.1785,-103.0402 403.4668,-102.9527"/>
<text text-anchor="middle" x="396.2785" y="-90.4844" font-family="Times,serif" font-size="14.00" fill="#000000">108</text>
</g>
<!-- 109,113&#45;&gt;123,107 -->
<g id="edge12" class="edge">
<title>109,113-&gt;123,107</title>
<path fill="none" stroke="#000000" d="M353.464,-87.8896C350.564,-74.3018 346.6183,-55.8147 343.7209,-42.2392"/>
<text text-anchor="middle" x="341.5925" y="-69.2644" font-family="Times,serif" font-size="14.00" fill="#000000">68</text>
</g>
<!-- 81,107 -->
<g id="node13" class="node">
<title>81,107</title>
<ellipse fill="none" stroke="#000000" cx="369.8985" cy="-190.9354" rx="37.6864" ry="18"/>
<text text-anchor="middle" x="369.8985" y="-186.7354" font-family="Times,serif" font-size="14.00" fill="#000000">81,107</text>
</g>
<!-- 81,107&#45;&gt;77,125 -->
<g id="edge13" class="edge">
<title>81,107-&gt;77,125</title>
<path fill="none" stroke="#000000" d="M407.4807,-188.987C410.0521,-188.8537 412.6435,-188.7194 415.2149,-188.5861"/>
<text text-anchor="middle" x="414.8478" y="-176.1866" font-family="Times,serif" font-size="14.00" fill="#000000">54</text>
</g>
<!-- 81,107&#45;&gt;109,113 -->
<g id="edge14" class="edge">
<title>81,107-&gt;109,113</title>
<path fill="none" stroke="#000000" d="M367.2368,-172.9411C365.1069,-158.542 362.1345,-138.4472 360.0057,-124.0549"/>
<text text-anchor="middle" x="353.1212" y="-152.698" font-family="Times,serif" font-size="14.00" fill="#000000">174</text>
</g>
<!-- 55,103 -->
<g id="node14" class="node">
<title>55,103</title>
<ellipse fill="none" stroke="#000000" cx="379.9858" cy="-275.7449" rx="37.6864" ry="18"/>
<text text-anchor="middle" x="379.9858" y="-271.5449" font-family="Times,serif" font-size="14.00" fill="#000000">55,103</text>
</g>
<!-- 55,103&#45;&gt;55,127 -->
<g id="edge15" class="edge">
<title>55,103-&gt;55,127</title>
<path fill="none" stroke="#000000" d="M417.9783,-275.1893C419.6138,-275.1654 421.2544,-275.1414 422.8895,-275.1175"/>
<text text-anchor="middle" x="420.4339" y="-262.5534" font-family="Times,serif" font-size="14.00" fill="#000000">96</text>
</g>
<!-- 55,103&#45;&gt;81,107 -->
<g id="edge16" class="edge">
<title>55,103-&gt;81,107</title>
<path fill="none" stroke="#000000" d="M377.8466,-257.759C376.1463,-243.4637 373.778,-223.5521 372.0694,-209.1877"/>
<text text-anchor="middle" x="364.458" y="-237.6733" font-family="Times,serif" font-size="14.00" fill="#000000">142</text>
</g>
<!-- 33,107 -->
<g id="node15" class="node">
<title>33,107</title>
<ellipse fill="none" stroke="#000000" cx="387.9677" cy="-359.3118" rx="37.6864" ry="18"/>
<text text-anchor="middle" x="387.9677" y="-355.1118" font-family="Times,serif" font-size="14.00" fill="#000000">33,107</text>
</g>
<!-- 33,107&#45;&gt;11,103 -->
<g id="edge18" class="edge">
<title>33,107-&gt;11,103</title>
<path fill="none" stroke="#000000" d="M394.1541,-377.3136C397.5878,-387.305 401.8468,-399.6981 405.2869,-409.7083"/>
<text text-anchor="middle" x="389.2205" y="-397.7109" font-family="Times,serif" font-size="14.00" fill="#000000">138</text>
</g>
<!-- 33,107&#45;&gt;29,125 -->
<g id="edge17" class="edge">
<title>33,107-&gt;29,125</title>
<path fill="none" stroke="#000000" d="M425.4087,-361.5057C425.5466,-361.5138 425.6845,-361.5219 425.8224,-361.53"/>
<text text-anchor="middle" x="432.6155" y="-348.9179" font-family="Times,serif" font-size="14.00" fill="#000000">78</text>
</g>
<!-- 33,107&#45;&gt;55,103 -->
<g id="edge19" class="edge">
<title>33,107-&gt;55,103</title>
<path fill="none" stroke="#000000" d="M386.2357,-341.179C384.8969,-327.1621 383.0524,-307.8503 381.7144,-293.8423"/>
<text text-anchor="middle" x="373.4751" y="-321.7107" font-family="Times,serif" font-size="14.00" fill="#000000">146</text>
</g>
<!-- 33,75 -->
<g id="node16" class="node">
<title>33,75</title>
<ellipse fill="none" stroke="#000000" cx="305.3155" cy="-374.1449" rx="32.5309" ry="18"/>
<text text-anchor="middle" x="305.3155" y="-369.9449" font-family="Times,serif" font-size="14.00" fill="#000000">33,75</text>
</g>
<!-- 33,75&#45;&gt;19,75 -->
<g id="edge20" class="edge">
<title>33,75-&gt;19,75</title>
<path fill="none" stroke="#000000" d="M310.0855,-392.2425C313.408,-404.8484 317.8207,-421.5905 321.1375,-434.1748"/>
<text text-anchor="middle" x="308.6115" y="-417.4086" font-family="Times,serif" font-size="14.00" fill="#000000">38</text>
</g>
<!-- 33,75&#45;&gt;33,107 -->
<g id="edge21" class="edge">
<title>33,75-&gt;33,107</title>
<path fill="none" stroke="#000000" d="M336.5627,-368.5371C341.7741,-367.6019 347.2133,-366.6258 352.5204,-365.6733"/>
<text text-anchor="middle" x="339.2916" y="-354.5052" font-family="Times,serif" font-size="14.00" fill="#000000">180</text>
</g>
<!-- 59,89 -->
<g id="node17" class="node">
<title>59,89</title>
<ellipse fill="none" stroke="#000000" cx="294.8184" cy="-288.6585" rx="32.5309" ry="18"/>
<text text-anchor="middle" x="294.8184" y="-284.4585" font-family="Times,serif" font-size="14.00" fill="#000000">59,89</text>
</g>
<!-- 59,89&#45;&gt;55,103 -->
<g id="edge22" class="edge">
<title>59,89-&gt;55,103</title>
<path fill="none" stroke="#000000" d="M326.5316,-283.8499C332.2068,-282.9894 338.1581,-282.0871 343.9443,-281.2097"/>
<text text-anchor="middle" x="335.238" y="-269.9298" font-family="Times,serif" font-size="14.00" fill="#000000">58</text>
</g>
<!-- 59,89&#45;&gt;33,75 -->
<g id="edge23" class="edge">
<title>59,89-&gt;33,75</title>
<path fill="none" stroke="#000000" d="M297.0446,-306.788C298.826,-321.2953 301.312,-341.5411 303.0925,-356.0416"/>
<text text-anchor="middle" x="289.5686" y="-335.6148" font-family="Times,serif" font-size="14.00" fill="#000000">184</text>
</g>
<!-- 89,87 -->
<g id="node18" class="node">
<title>89,87</title>
<ellipse fill="none" stroke="#000000" cx="284.364" cy="-202.8" rx="32.5309" ry="18"/>
<text text-anchor="middle" x="284.364" y="-198.6" font-family="Times,serif" font-size="14.00" fill="#000000">89,87</text>
</g>
<!-- 89,87&#45;&gt;81,107 -->
<g id="edge24" class="edge">
<title>89,87-&gt;81,107</title>
<path fill="none" stroke="#000000" d="M316.2139,-198.3821C321.9135,-197.5915 327.8905,-196.7624 333.7016,-195.9563"/>
<text text-anchor="middle" x="324.9577" y="-184.5692" font-family="Times,serif" font-size="14.00" fill="#000000">136</text>
</g>
<!-- 89,87&#45;&gt;59,89 -->
<g id="edge25" class="edge">
<title>89,87-&gt;59,89</title>
<path fill="none" stroke="#000000" d="M286.5811,-221.0084C288.3552,-235.5789 290.8312,-255.9128 292.6045,-270.4764"/>
<text text-anchor="middle" x="279.0928" y="-249.9424" font-family="Times,serif" font-size="14.00" fill="#000000">180</text>
</g>
<!-- 107,89 -->
<g id="node19" class="node">
<title>107,89</title>
<ellipse fill="none" stroke="#000000" cx="272.3774" cy="-117.2484" rx="37.6864" ry="18"/>
<text text-anchor="middle" x="272.3774" y="-113.0484" font-family="Times,serif" font-size="14.00" fill="#000000">107,89</text>
</g>
<!-- 107,89&#45;&gt;109,113 -->
<g id="edge26" class="edge">
<title>107,89-&gt;109,113</title>
<path fill="none" stroke="#000000" d="M308.9056,-112.45C311.5145,-112.1073 314.1539,-111.7606 316.7835,-111.4152"/>
<text text-anchor="middle" x="305.8445" y="-99.3326" font-family="Times,serif" font-size="14.00" fill="#000000">66</text>
</g>
<!-- 107,89&#45;&gt;89,87 -->
<g id="edge27" class="edge">
<title>107,89-&gt;89,87</title>
<path fill="none" stroke="#000000" d="M274.9194,-135.3917C276.9536,-149.9101 279.7924,-170.1714 281.8256,-184.6829"/>
<text text-anchor="middle" x="267.8725" y="-164.2373" font-family="Times,serif" font-size="14.00" fill="#000000">120</text>
</g>
<!-- 129,83 -->
<g id="node20" class="node">
<title>129,83</title>
<ellipse fill="none" stroke="#000000" cx="253.9269" cy="-36.1347" rx="37.6864" ry="18"/>
<text text-anchor="middle" x="253.9269" y="-31.9347" font-family="Times,serif" font-size="14.00" fill="#000000">129,83</text>
</g>
<!-- 129,83&#45;&gt;123,107 -->
<g id="edge28" class="edge">
<title>129,83-&gt;123,107</title>
<path fill="none" stroke="#000000" d="M290.3652,-31.0279C293.3839,-30.6049 296.4466,-30.1756 299.4917,-29.7489"/>
<text text-anchor="middle" x="289.6785" y="-17.7884" font-family="Times,serif" font-size="14.00" fill="#000000">234</text>
</g>
<!-- 129,83&#45;&gt;107,89 -->
<g id="edge29" class="edge">
<title>129,83-&gt;107,89</title>
<path fill="none" stroke="#000000" d="M258.0217,-54.1365C261.0792,-67.5784 265.2393,-85.8672 268.2941,-99.297"/>
<text text-anchor="middle" x="252.6579" y="-80.9167" font-family="Times,serif" font-size="14.00" fill="#000000">132</text>
</g>
<!-- 135,57 -->
<g id="node21" class="node">
<title>135,57</title>
<ellipse fill="none" stroke="#000000" cx="167.4667" cy="-52.1813" rx="37.6864" ry="18"/>
<text text-anchor="middle" x="167.4667" y="-47.9813" font-family="Times,serif" font-size="14.00" fill="#000000">135,57</text>
</g>
<!-- 135,57&#45;&gt;129,83 -->
<g id="edge30" class="edge">
<title>135,57-&gt;129,83</title>
<path fill="none" stroke="#000000" d="M202.6334,-45.6545C207.9631,-44.6654 213.4623,-43.6447 218.7914,-42.6557"/>
<text text-anchor="middle" x="205.4624" y="-31.5551" font-family="Times,serif" font-size="14.00" fill="#000000">192</text>
</g>
<!-- 111,65 -->
<g id="node22" class="node">
<title>111,65</title>
<ellipse fill="none" stroke="#000000" cx="188.0293" cy="-130.3978" rx="37.6864" ry="18"/>
<text text-anchor="middle" x="188.0293" y="-126.1978" font-family="Times,serif" font-size="14.00" fill="#000000">111,65</text>
</g>
<!-- 111,65&#45;&gt;107,89 -->
<g id="edge31" class="edge">
<title>111,65-&gt;107,89</title>
<path fill="none" stroke="#000000" d="M223.8005,-124.8213C228.0211,-124.1633 232.3294,-123.4917 236.5508,-122.8336"/>
<text text-anchor="middle" x="226.6756" y="-111.2275" font-family="Times,serif" font-size="14.00" fill="#000000">88</text>
</g>
<!-- 111,65&#45;&gt;135,57 -->
<g id="edge32" class="edge">
<title>111,65-&gt;135,57</title>
<path fill="none" stroke="#000000" d="M183.2601,-112.2568C179.9382,-99.6207 175.5262,-82.8384 172.21,-70.224"/>
<text text-anchor="middle" x="167.235" y="-95.4404" font-family="Times,serif" font-size="14.00" fill="#000000">140</text>
</g>
<!-- 83,53 -->
<g id="node23" class="node">
<title>83,53</title>
<ellipse fill="none" stroke="#000000" cx="198.8816" cy="-215.8491" rx="32.5309" ry="18"/>
<text text-anchor="middle" x="198.8816" y="-211.6491" font-family="Times,serif" font-size="14.00" fill="#000000">83,53</text>
</g>
<!-- 83,53&#45;&gt;89,87 -->
<g id="edge33" class="edge">
<title>83,53-&gt;89,87</title>
<path fill="none" stroke="#000000" d="M230.7121,-210.9901C237.9273,-209.8887 245.5871,-208.7194 252.7915,-207.6196"/>
<text text-anchor="middle" x="241.7518" y="-196.7049" font-family="Times,serif" font-size="14.00" fill="#000000">212</text>
</g>
<!-- 83,53&#45;&gt;111,65 -->
<g id="edge34" class="edge">
<title>83,53-&gt;111,65</title>
<path fill="none" stroke="#000000" d="M196.5801,-197.7271C194.7384,-183.2257 192.1683,-162.9882 190.3275,-148.4937"/>
<text text-anchor="middle" x="182.9538" y="-177.3104" font-family="Times,serif" font-size="14.00" fill="#000000">164</text>
</g>
<!-- 55,55 -->
<g id="node24" class="node">
<title>55,55</title>
<ellipse fill="none" stroke="#000000" cx="209.3105" cy="-301.7062" rx="32.5309" ry="18"/>
<text text-anchor="middle" x="209.3105" y="-297.5062" font-family="Times,serif" font-size="14.00" fill="#000000">55,55</text>
</g>
<!-- 55,55&#45;&gt;59,89 -->
<g id="edge35" class="edge">
<title>55,55-&gt;59,89</title>
<path fill="none" stroke="#000000" d="M241.1505,-296.8477C248.3678,-295.7464 256.0299,-294.5773 263.2365,-293.4776"/>
<text text-anchor="middle" x="252.1935" y="-282.5627" font-family="Times,serif" font-size="14.00" fill="#000000">222</text>
</g>
<!-- 55,55&#45;&gt;83,53 -->
<g id="edge36" class="edge">
<title>55,55-&gt;83,53</title>
<path fill="none" stroke="#000000" d="M207.0988,-283.4981C205.329,-268.9279 202.8591,-248.5943 201.0901,-234.031"/>
<text text-anchor="middle" x="193.5945" y="-262.9646" font-family="Times,serif" font-size="14.00" fill="#000000">194</text>
</g>
<!-- 33,67 -->
<g id="node25" class="node">
<title>33,67</title>
<ellipse fill="none" stroke="#000000" cx="220.8974" cy="-387.2808" rx="32.5309" ry="18"/>
<text text-anchor="middle" x="220.8974" y="-383.0808" font-family="Times,serif" font-size="14.00" fill="#000000">33,67</text>
</g>
<!-- 33,67&#45;&gt;9,65 -->
<g id="edge38" class="edge">
<title>33,67-&gt;9,65</title>
<path fill="none" stroke="#000000" d="M224.9166,-405.2575C227.9178,-418.6808 232.001,-436.9441 234.9994,-450.3552"/>
<text text-anchor="middle" x="219.458" y="-432.0064" font-family="Times,serif" font-size="14.00" fill="#000000">126</text>
</g>
<!-- 33,67&#45;&gt;33,75 -->
<g id="edge37" class="edge">
<title>33,67-&gt;33,75</title>
<path fill="none" stroke="#000000" d="M252.8123,-382.3147C259.6292,-381.2539 266.8275,-380.1338 273.6355,-379.0745"/>
<text text-anchor="middle" x="263.2239" y="-368.0946" font-family="Times,serif" font-size="14.00" fill="#000000">20</text>
</g>
<!-- 33,67&#45;&gt;55,55 -->
<g id="edge39" class="edge">
<title>33,67-&gt;55,55</title>
<path fill="none" stroke="#000000" d="M218.4402,-369.1326C216.4738,-354.6103 213.7296,-334.3436 211.7642,-319.8282"/>
<text text-anchor="middle" x="204.6022" y="-348.6804" font-family="Times,serif" font-size="14.00" fill="#000000">158</text>
</g>
<!-- 29,41 -->
<g id="node26" class="node">
<title>29,41</title>
<ellipse fill="none" stroke="#000000" cx="135.754" cy="-397.9893" rx="32.5309" ry="18"/>
<text text-anchor="middle" x="135.754" y="-393.7893" font-family="Times,serif" font-size="14.00" fill="#000000">29,41</text>
</g>
<!-- 29,41&#45;&gt;15,33 -->
<g id="edge40" class="edge">
<title>29,41-&gt;15,33</title>
<path fill="none" stroke="#000000" d="M139.495,-416.1671C142.2884,-429.7404 146.0891,-448.208 148.88,-461.7691"/>
<text text-anchor="middle" x="137.1875" y="-443.1681" font-family="Times,serif" font-size="14.00" fill="#000000">94</text>
</g>
<!-- 29,41&#45;&gt;33,67 -->
<g id="edge41" class="edge">
<title>29,41-&gt;33,67</title>
<path fill="none" stroke="#000000" d="M167.9431,-393.9409C174.8185,-393.0761 182.0787,-392.163 188.9452,-391.2994"/>
<text text-anchor="middle" x="178.4442" y="-380.0201" font-family="Times,serif" font-size="14.00" fill="#000000">114</text>
</g>
<!-- 53,35 -->
<g id="node27" class="node">
<title>53,35</title>
<ellipse fill="none" stroke="#000000" cx="123.6557" cy="-313.1956" rx="32.5309" ry="18"/>
<text text-anchor="middle" x="123.6557" y="-308.9956" font-family="Times,serif" font-size="14.00" fill="#000000">53,35</text>
</g>
<!-- 53,35&#45;&gt;55,55 -->
<g id="edge42" class="edge">
<title>53,35-&gt;55,55</title>
<path fill="none" stroke="#000000" d="M155.5504,-308.9174C162.685,-307.9604 170.2535,-306.9452 177.3892,-305.988"/>
<text text-anchor="middle" x="169.9698" y="-294.8527" font-family="Times,serif" font-size="14.00" fill="#000000">70</text>
</g>
<!-- 53,35&#45;&gt;29,41 -->
<g id="edge43" class="edge">
<title>53,35-&gt;29,41</title>
<path fill="none" stroke="#000000" d="M126.2215,-331.1782C128.2746,-345.5679 131.1398,-365.6497 133.1919,-380.0326"/>
<text text-anchor="middle" x="119.2067" y="-359.8054" font-family="Times,serif" font-size="14.00" fill="#000000">178</text>
</g>
<!-- 81,41 -->
<g id="node28" class="node">
<title>81,41</title>
<ellipse fill="none" stroke="#000000" cx="113.6464" cy="-228.4923" rx="32.5309" ry="18"/>
<text text-anchor="middle" x="113.6464" y="-224.2923" font-family="Times,serif" font-size="14.00" fill="#000000">81,41</text>
</g>
<!-- 81,41&#45;&gt;83,53 -->
<g id="edge44" class="edge">
<title>81,41-&gt;83,53</title>
<path fill="none" stroke="#000000" d="M145.3848,-223.7844C152.4845,-222.7313 160.0159,-221.6142 167.1167,-220.5609"/>
<text text-anchor="middle" x="159.7507" y="-209.5727" font-family="Times,serif" font-size="14.00" fill="#000000">46</text>
</g>
<!-- 81,41&#45;&gt;53,35 -->
<g id="edge45" class="edge">
<title>81,41-&gt;53,35</title>
<path fill="none" stroke="#000000" d="M115.7691,-246.4557C117.4563,-260.733 119.8063,-280.6197 121.5016,-294.9661"/>
<text text-anchor="middle" x="108.1353" y="-274.9109" font-family="Times,serif" font-size="14.00" fill="#000000">162</text>
</g>
<!-- 111,39 -->
<g id="node29" class="node">
<title>111,39</title>
<ellipse fill="none" stroke="#000000" cx="105.3632" cy="-145.0456" rx="37.6864" ry="18"/>
<text text-anchor="middle" x="105.3632" y="-140.8456" font-family="Times,serif" font-size="14.00" fill="#000000">111,39</text>
</g>
<!-- 111,39&#45;&gt;111,65 -->
<g id="edge46" class="edge">
<title>111,39-&gt;111,65</title>
<path fill="none" stroke="#000000" d="M140.9008,-138.7486C144.7517,-138.0663 148.6711,-137.3718 152.5217,-136.6895"/>
<text text-anchor="middle" x="136.2113" y="-125.1191" font-family="Times,serif" font-size="14.00" fill="#000000">138</text>
</g>
<!-- 111,39&#45;&gt;81,41 -->
<g id="edge47" class="edge">
<title>111,39-&gt;81,41</title>
<path fill="none" stroke="#000000" d="M107.1605,-163.1523C108.5499,-177.1491 110.4641,-196.433 111.8526,-210.4209"/>
<text text-anchor="middle" x="99.0066" y="-190.9866" font-family="Times,serif" font-size="14.00" fill="#000000">140</text>
</g>
<!-- 133,29 -->
<g id="node30" class="node">
<title>133,29</title>
<ellipse fill="none" stroke="#000000" cx="82.1778" cy="-76.0254" rx="37.6864" ry="18"/>
<text text-anchor="middle" x="82.1778" y="-71.8254" font-family="Times,serif" font-size="14.00" fill="#000000">133,29</text>
</g>
<!-- 133,29&#45;&gt;135,57 -->
<g id="edge48" class="edge">
<title>133,29-&gt;135,57</title>
<path fill="none" stroke="#000000" d="M114.9088,-66.8749C121.4855,-65.0362 128.3952,-63.1045 134.9641,-61.268"/>
<text text-anchor="middle" x="119.6864" y="-51.4714" font-family="Times,serif" font-size="14.00" fill="#000000">150</text>
</g>
<!-- 133,29&#45;&gt;111,39 -->
<g id="edge49" class="edge">
<title>133,29-&gt;111,39</title>
<path fill="none" stroke="#000000" d="M88.1486,-93.7998C91.5834,-104.0249 95.8871,-116.8364 99.332,-127.0915"/>
<text text-anchor="middle" x="83.2403" y="-114.6457" font-family="Times,serif" font-size="14.00" fill="#000000">208</text>
</g>
<!-- 99,17 -->
<g id="node31" class="node">
<title>99,17</title>
<ellipse fill="none" stroke="#000000" cx="33.1287" cy="-139.6105" rx="32.5309" ry="18"/>
<text text-anchor="middle" x="33.1287" y="-135.4105" font-family="Times,serif" font-size="14.00" fill="#000000">99,17</text>
</g>
<!-- 99,17&#45;&gt;111,39 -->
<g id="edge50" class="edge">
<title>99,17-&gt;111,39</title>
<path fill="none" stroke="#000000" d="M65.8644,-142.0736C66.611,-142.1298 67.3595,-142.1861 68.1087,-142.2425"/>
<text text-anchor="middle" x="56.4865" y="-146.358" font-family="Times,serif" font-size="14.00" fill="#000000">150</text>
</g>
<!-- 99,17&#45;&gt;133,29 -->
<g id="edge51" class="edge">
<title>99,17-&gt;133,29</title>
<path fill="none" stroke="#000000" d="M46.0158,-122.9043C53.0549,-113.779 61.7592,-102.4952 68.864,-93.2849"/>
<text text-anchor="middle" x="46.9399" y="-95.4946" font-family="Times,serif" font-size="14.00" fill="#000000">458</text>
</g>
<!-- 87,13 -->
<g id="node32" class="node">
<title>87,13</title>
<ellipse fill="none" stroke="#000000" cx="32.7646" cy="-228.5467" rx="32.5309" ry="18"/>
<text text-anchor="middle" x="32.7646" y="-224.3467" font-family="Times,serif" font-size="14.00" fill="#000000">87,13</text>
</g>
<!-- 87,13&#45;&gt;81,41 -->
<g id="edge52" class="edge">
<title>87,13-&gt;81,41</title>
<path fill="none" stroke="#000000" d="M65.6623,-228.5245C70.6482,-228.5212 75.7926,-228.5177 80.7778,-228.5144"/>
<text text-anchor="middle" x="73.2201" y="-215.9195" font-family="Times,serif" font-size="14.00" fill="#000000">190</text>
</g>
<!-- 87,13&#45;&gt;99,17 -->
<g id="edge53" class="edge">
<title>87,13-&gt;99,17</title>
<path fill="none" stroke="#000000" d="M32.8401,-210.119C32.903,-194.7536 32.9921,-172.9836 33.0546,-157.7102"/>
<text text-anchor="middle" x="25.9474" y="-188.1146" font-family="Times,serif" font-size="14.00" fill="#000000">56</text>
</g>
<!-- 59,11 -->
<g id="node33" class="node">
<title>59,11</title>
<ellipse fill="none" stroke="#000000" cx="40.4767" cy="-316.3296" rx="32.5309" ry="18"/>
<text text-anchor="middle" x="40.4767" y="-312.1296" font-family="Times,serif" font-size="14.00" fill="#000000">59,11</text>
</g>
<!-- 59,11&#45;&gt;53,35 -->
<g id="edge54" class="edge">
<title>59,11-&gt;53,35</title>
<path fill="none" stroke="#000000" d="M73.3513,-315.091C79.073,-314.8754 85.025,-314.6511 90.7476,-314.4355"/>
<text text-anchor="middle" x="82.0494" y="-302.1632" font-family="Times,serif" font-size="14.00" fill="#000000">154</text>
</g>
<!-- 59,11&#45;&gt;87,13 -->
<g id="edge55" class="edge">
<title>59,11-&gt;87,13</title>
<path fill="none" stroke="#000000" d="M38.8788,-298.1409C37.5552,-283.0752 35.6836,-261.7713 34.3605,-246.712"/>
<text text-anchor="middle" x="26.1197" y="-276.6265" font-family="Times,serif" font-size="14.00" fill="#000000">298</text>
</g>
<!-- 35,5 -->
<g id="node34" class="node">
<title>35,5</title>
<ellipse fill="none" stroke="#000000" cx="51.933" cy="-402.4092" rx="27.8725" ry="18"/>
<text text-anchor="middle" x="51.933" y="-398.2092" font-family="Times,serif" font-size="14.00" fill="#000000">35,5</text>
</g>
<!-- 35,5&#45;&gt;5,9 -->
<g id="edge57" class="edge">
<title>35,5-&gt;5,9</title>
<path fill="none" stroke="#000000" d="M55.503,-420.277C58.2437,-433.9946 62.0126,-452.8584 64.7657,-466.6379"/>
<text text-anchor="middle" x="49.6344" y="-447.6575" font-family="Times,serif" font-size="14.00" fill="#000000">142</text>
</g>
<!-- 35,5&#45;&gt;29,41 -->
<g id="edge56" class="edge">
<title>35,5-&gt;29,41</title>
<path fill="none" stroke="#000000" d="M79.8442,-400.9374C87.2736,-400.5457 95.366,-400.1189 103.0278,-399.7149"/>
<text text-anchor="middle" x="91.436" y="-387.7262" font-family="Times,serif" font-size="14.00" fill="#000000">222</text>
</g>
<!-- 35,5&#45;&gt;59,11 -->
<g id="edge58" class="edge">
<title>35,5-&gt;59,11</title>
<path fill="none" stroke="#000000" d="M49.5035,-384.1539C47.5593,-369.5459 44.8461,-349.1596 42.9028,-334.5585"/>
<text text-anchor="middle" x="35.7031" y="-363.5562" font-family="Times,serif" font-size="14.00" fill="#000000">162</text>
</g>
</g>
</svg>