<?xml version="1.0" encoding="UTF-8" standalone="no"?>
<!DOCTYPE svg PUBLIC "-//W3C//DTD SVG 1.1//EN" "http://www.w3.org/Graphics/SVG/1.1/DTD/svg11.dtd">
<!-- Generated by graphviz version 2.40.1 (20161225.0304)
 -->
<!-- Title: %0 Pages: 1 -->
<svg width="582pt" height="404pt" viewBox="0.00 0.00 582.00 404.00" xmlns="http://www.w3.org/2000/svg" xmlns:xlink="http://www.w3.org/1999/xlink">
<g id="graph0" class="graph" transform="scale(1 1) rotate(0) translate(4 400)">
<title>%0</title>
<polygon fill="#ffffff" stroke="transparent" points="-4,4 -4,-400 578,-400 578,4 -4,4"/>
<!-- bvb -->
<g id="node1" class="node">
<title>bvb</title>
<ellipse fill="none" stroke="#000000" cx="137" cy="-162" rx="27" ry="18"/>
<text text-anchor="middle" x="137" y="-157.8" font-family="Times,serif" font-size="14.00" fill="#000000">bvb</text>
</g>
<!-- xhk -->
<g id="node2" class="node">
<title>xhk</title>
<ellipse fill="none" stroke="#000000" cx="27" cy="-90" rx="27" ry="18"/>
<text text-anchor="middle" x="27" y="-85.8" font-family="Times,serif" font-size="14.00" fill="#000000">xhk</text>
</g>
<!-- bvb&#45;&#45;xhk -->
<g id="edge1" class="edge">
<title>bvb--xhk</title>
<path fill="none" stroke="#000000" d="M117.5874,-149.2936C97.6039,-136.2135 66.6362,-115.9437 46.5885,-102.8216"/>
</g>
<!-- hfx -->
<g id="node3" class="node">
<title>hfx</title>
<ellipse fill="none" stroke="#000000" cx="137" cy="-18" rx="27" ry="18"/>
<text text-anchor="middle" x="137" y="-13.8" font-family="Times,serif" font-size="14.00" fill="#000000">hfx</text>
</g>
<!-- bvb&#45;&#45;hfx -->
<g id="edge2" class="edge">
<title>bvb--hfx</title>
<path fill="none" stroke="#000000" d="M137,-143.7623C137,-116.0633 137,-63.7005 137,-36.0896"/>
</g>
<!-- xhk&#45;&#45;hfx -->
<g id="edge33" class="edge">
<title>xhk--hfx</title>
<path fill="none" stroke="#000000" d="M46.4126,-77.2936C66.3961,-64.2135 97.3638,-43.9437 117.4115,-30.8216"/>
</g>
<!-- cmg -->
<g id="node4" class="node">
<title>cmg</title>
<ellipse fill="none" stroke="#000000" cx="307" cy="-234" rx="27.8286" ry="18"/>
<text text-anchor="middle" x="307" y="-229.8" font-family="Times,serif" font-size="14.00" fill="#000000">cmg</text>
</g>
<!-- cmg&#45;&#45;bvb -->
<g id="edge6" class="edge">
<title>cmg--bvb</title>
<path fill="none" stroke="#000000" d="M283.7187,-224.1397C251.1639,-210.3518 192.4032,-185.4649 160.0001,-171.7412"/>
</g>
<!-- qnr -->
<g id="node5" class="node">
<title>qnr</title>
<ellipse fill="none" stroke="#000000" cx="361" cy="-162" rx="27" ry="18"/>
<text text-anchor="middle" x="361" y="-157.8" font-family="Times,serif" font-size="14.00" fill="#000000">qnr</text>
</g>
<!-- cmg&#45;&#45;qnr -->
<g id="edge3" class="edge">
<title>cmg--qnr</title>
<path fill="none" stroke="#000000" d="M319.2534,-217.6621C328.0909,-205.8788 339.9688,-190.0416 348.7951,-178.2733"/>
</g>
<!-- nvd -->
<g id="node6" class="node">
<title>nvd</title>
<ellipse fill="none" stroke="#000000" cx="323" cy="-90" rx="27" ry="18"/>
<text text-anchor="middle" x="323" y="-85.8" font-family="Times,serif" font-size="14.00" fill="#000000">nvd</text>
</g>
<!-- cmg&#45;&#45;nvd -->
<g id="edge4" class="edge">
<title>cmg--nvd</title>
<path fill="none" stroke="#000000" d="M309.0264,-215.7623C312.1041,-188.0633 317.9222,-135.7005 320.99,-108.0896"/>
</g>
<!-- lhk -->
<g id="node7" class="node">
<title>lhk</title>
<ellipse fill="none" stroke="#000000" cx="369" cy="-18" rx="27" ry="18"/>
<text text-anchor="middle" x="369" y="-13.8" font-family="Times,serif" font-size="14.00" fill="#000000">lhk</text>
</g>
<!-- cmg&#45;&#45;lhk -->
<g id="edge5" class="edge">
<title>cmg--lhk</title>
<path fill="none" stroke="#000000" d="M298.6046,-216.7007C284.8476,-185.6772 261.4597,-119.4002 287,-72 299.1284,-49.491 325.1963,-34.8203 344.7044,-26.5302"/>
</g>
<!-- qnr&#45;&#45;nvd -->
<g id="edge22" class="edge">
<title>qnr--nvd</title>
<path fill="none" stroke="#000000" d="M351.9945,-144.937C346.0248,-133.626 338.2149,-118.8282 332.2048,-107.4407"/>
</g>
<!-- nvd&#45;&#45;lhk -->
<g id="edge18" class="edge">
<title>nvd--lhk</title>
<path fill="none" stroke="#000000" d="M333.6689,-73.3008C341.1004,-61.669 350.9702,-46.2206 358.3889,-34.6087"/>
</g>
<!-- frs -->
<g id="node8" class="node">
<title>frs</title>
<ellipse fill="none" stroke="#000000" cx="418" cy="-234" rx="27" ry="18"/>
<text text-anchor="middle" x="418" y="-229.8" font-family="Times,serif" font-size="14.00" fill="#000000">frs</text>
</g>
<!-- frs&#45;&#45;qnr -->
<g id="edge7" class="edge">
<title>frs--qnr</title>
<path fill="none" stroke="#000000" d="M405.3499,-218.0209C395.904,-206.0892 383.0521,-189.8553 373.6148,-177.9345"/>
</g>
<!-- frs&#45;&#45;lhk -->
<g id="edge8" class="edge">
<title>frs--lhk</title>
<path fill="none" stroke="#000000" d="M413.9066,-215.9555C404.6601,-175.1954 382.2499,-76.4077 373.0473,-35.8413"/>
</g>
<!-- lsr -->
<g id="node9" class="node">
<title>lsr</title>
<ellipse fill="none" stroke="#000000" cx="547" cy="-162" rx="27" ry="18"/>
<text text-anchor="middle" x="547" y="-157.8" font-family="Times,serif" font-size="14.00" fill="#000000">lsr</text>
</g>
<!-- frs&#45;&#45;lsr -->
<g id="edge9" class="edge">
<title>frs--lsr</title>
<path fill="none" stroke="#000000" d="M438.7261,-222.432C462.6564,-209.0755 501.8079,-187.2235 525.8968,-173.7785"/>
</g>
<!-- lsr&#45;&#45;lhk -->
<g id="edge13" class="edge">
<title>lsr--lhk</title>
<path fill="none" stroke="#000000" d="M529.6085,-147.9305C495.4916,-120.3303 420.1621,-59.3896 386.2,-31.9146"/>
</g>
<!-- jqt -->
<g id="node10" class="node">
<title>jqt</title>
<ellipse fill="none" stroke="#000000" cx="82" cy="-306" rx="27" ry="18"/>
<text text-anchor="middle" x="82" y="-301.8" font-family="Times,serif" font-size="14.00" fill="#000000">jqt</text>
</g>
<!-- jqt&#45;&#45;xhk -->
<g id="edge11" class="edge">
<title>jqt--xhk</title>
<path fill="none" stroke="#000000" d="M68.4564,-290.0904C60.544,-279.8797 51.1331,-265.959 46,-252 27.7239,-202.2995 26.01,-138.7676 26.4137,-108.1306"/>
</g>
<!-- jqt&#45;&#45;nvd -->
<g id="edge12" class="edge">
<title>jqt--nvd</title>
<path fill="none" stroke="#000000" d="M98.1869,-291.4922C142.0905,-252.143 263.0625,-143.7199 306.8835,-104.4446"/>
</g>
<!-- rhn -->
<g id="node11" class="node">
<title>rhn</title>
<ellipse fill="none" stroke="#000000" cx="82" cy="-234" rx="27" ry="18"/>
<text text-anchor="middle" x="82" y="-229.8" font-family="Times,serif" font-size="14.00" fill="#000000">rhn</text>
</g>
<!-- jqt&#45;&#45;rhn -->
<g id="edge10" class="edge">
<title>jqt--rhn</title>
<path fill="none" stroke="#000000" d="M82,-287.8314C82,-277 82,-263.2876 82,-252.4133"/>
</g>
<!-- rhn&#45;&#45;bvb -->
<g id="edge24" class="edge">
<title>rhn--bvb</title>
<path fill="none" stroke="#000000" d="M94.4804,-217.6621C103.4814,-205.8788 115.5793,-190.0416 124.569,-178.2733"/>
</g>
<!-- rhn&#45;&#45;xhk -->
<g id="edge23" class="edge">
<title>rhn--xhk</title>
<path fill="none" stroke="#000000" d="M75.2559,-216.3428C64.6999,-188.7053 44.3891,-135.5278 33.7992,-107.8017"/>
</g>
<!-- rhn&#45;&#45;hfx -->
<g id="edge25" class="edge">
<title>rhn--hfx</title>
<path fill="none" stroke="#000000" d="M85.4162,-215.9856C88.9638,-197.7557 94.8476,-168.7993 101,-144 110.6413,-105.1375 124.0414,-60.1562 131.475,-35.8381"/>
</g>
<!-- ntq -->
<g id="node12" class="node">
<title>ntq</title>
<ellipse fill="none" stroke="#000000" cx="110" cy="-378" rx="27" ry="18"/>
<text text-anchor="middle" x="110" y="-373.8" font-family="Times,serif" font-size="14.00" fill="#000000">ntq</text>
</g>
<!-- ntq&#45;&#45;bvb -->
<g id="edge16" class="edge">
<title>ntq--bvb</title>
<path fill="none" stroke="#000000" d="M112.8033,-360.0192C114.4044,-349.5256 116.4044,-336.0256 118,-324 124.9279,-271.7865 131.8187,-209.9271 135.0691,-180.0016"/>
</g>
<!-- ntq&#45;&#45;xhk -->
<g id="edge17" class="edge">
<title>ntq--xhk</title>
<path fill="none" stroke="#000000" d="M89.3769,-366.0436C74.8952,-356.5308 56.3341,-341.8708 46,-324 4.9887,-253.0791 16.665,-149.2721 23.5752,-107.9411"/>
</g>
<!-- ntq&#45;&#45;hfx -->
<g id="edge15" class="edge">
<title>ntq--hfx</title>
<path fill="none" stroke="#000000" d="M125.4236,-363.1964C149.177,-338.7236 192,-287.223 192,-234 192,-234 192,-234 192,-162 192,-113.0265 163.8949,-60.4856 147.8662,-34.5031"/>
</g>
<!-- ntq&#45;&#45;jqt -->
<g id="edge14" class="edge">
<title>ntq--jqt</title>
<path fill="none" stroke="#000000" d="M103.222,-360.5708C98.8521,-349.3339 93.1894,-334.7727 88.8126,-323.5182"/>
</g>
<!-- pzl -->
<g id="node13" class="node">
<title>pzl</title>
<ellipse fill="none" stroke="#000000" cx="490" cy="-234" rx="27" ry="18"/>
<text text-anchor="middle" x="490" y="-229.8" font-family="Times,serif" font-size="14.00" fill="#000000">pzl</text>
</g>
<!-- pzl&#45;&#45;hfx -->
<g id="edge20" class="edge">
<title>pzl--hfx</title>
<path fill="none" stroke="#000000" d="M481.6835,-216.7118C464.2527,-182.5649 420.3655,-106.7698 359,-72 295.155,-35.8253 207.6505,-23.7338 164.0237,-19.8094"/>
</g>
<!-- pzl&#45;&#45;nvd -->
<g id="edge21" class="edge">
<title>pzl--nvd</title>
<path fill="none" stroke="#000000" d="M475.4586,-218.6815C457.6442,-200.2149 426.2214,-168.5981 397,-144 379.1142,-128.9441 357.3693,-113.3737 342.0947,-102.844"/>
</g>
<!-- pzl&#45;&#45;lsr -->
<g id="edge19" class="edge">
<title>pzl--lsr</title>
<path fill="none" stroke="#000000" d="M502.6501,-218.0209C512.096,-206.0892 524.9479,-189.8553 534.3852,-177.9345"/>
</g>
<!-- rsh -->
<g id="node14" class="node">
<title>rsh</title>
<ellipse fill="none" stroke="#000000" cx="454" cy="-306" rx="27" ry="18"/>
<text text-anchor="middle" x="454" y="-301.8" font-family="Times,serif" font-size="14.00" fill="#000000">rsh</text>
</g>
<!-- rsh&#45;&#45;frs -->
<g id="edge26" class="edge">
<title>rsh--frs</title>
<path fill="none" stroke="#000000" d="M445.2854,-288.5708C439.6253,-277.2506 432.2784,-262.5568 426.6343,-251.2687"/>
</g>
<!-- rsh&#45;&#45;lsr -->
<g id="edge28" class="edge">
<title>rsh--lsr</title>
<path fill="none" stroke="#000000" d="M475.886,-295.048C492.1627,-285.7769 513.6168,-270.9726 526,-252 540.2944,-230.0992 544.8994,-199.6008 546.3587,-180.332"/>
</g>
<!-- rsh&#45;&#45;pzl -->
<g id="edge27" class="edge">
<title>rsh--pzl</title>
<path fill="none" stroke="#000000" d="M462.7146,-288.5708C468.3747,-277.2506 475.7216,-262.5568 481.3657,-251.2687"/>
</g>
<!-- rzs -->
<g id="node15" class="node">
<title>rzs</title>
<ellipse fill="none" stroke="#000000" cx="408" cy="-378" rx="27" ry="18"/>
<text text-anchor="middle" x="408" y="-373.8" font-family="Times,serif" font-size="14.00" fill="#000000">rzs</text>
</g>
<!-- rzs&#45;&#45;cmg -->
<g id="edge30" class="edge">
<title>rzs--cmg</title>
<path fill="none" stroke="#000000" d="M389.7211,-364.4393C377.0689,-354.3528 360.5019,-339.6721 349,-324 332.2689,-301.2028 319.7377,-270.6785 312.8918,-251.6834"/>
</g>
<!-- rzs&#45;&#45;qnr -->
<g id="edge29" class="edge">
<title>rzs--qnr</title>
<path fill="none" stroke="#000000" d="M404.0736,-359.9555C395.2045,-319.1954 373.7091,-220.4077 364.8821,-179.8413"/>
</g>
<!-- rzs&#45;&#45;lsr -->
<g id="edge31" class="edge">
<title>rzs--lsr</title>
<path fill="none" stroke="#000000" d="M429.8509,-367.2859C463.7713,-349.1498 527.2534,-308.7564 547,-252 555.2663,-228.2407 553.1352,-198.7691 550.4151,-180.1675"/>
</g>
<!-- rzs&#45;&#45;rsh -->
<g id="edge32" class="edge">
<title>rzs--rsh</title>
<path fill="none" stroke="#000000" d="M418.6689,-361.3008C426.1004,-349.669 435.9702,-334.2206 443.3889,-322.6087"/>
</g>
</g>
</svg>